<?xml version="1.0" encoding="utf-8"?>
<!-- Generator: Adobe Illustrator 24.0.1, SVG Export Plug-In . SVG Version: 6.00 Build 0)  -->
<svg version="1.1" id="Calque_1" xmlns="http://www.w3.org/2000/svg" xmlns:xlink="http://www.w3.org/1999/xlink" x="0px" y="0px"
	 viewBox="0 0 720 88" style="enable-background:new 0 0 720 88;" xml:space="preserve">
<style type="text/css">
	.st0{fill:none;stroke:#42210B;stroke-width:2;stroke-miterlimit:10;}
	.st1{fill:#42210B;}
</style>
<g>
	<path class="st0" d="M9.4,5.8v31.1H11c1.8-3.9,3.9-8.2,6.5-12.9c2.6-4.7,5.1-8.6,7.6-11.6c2.5-3.1,4.8-4.6,6.9-4.6l3.8-0.2v56.7
		l-0.2,4.5c-0.2,2.1-0.6,3.6-1.4,4.4c-0.7,0.8-2,1.3-4,1.5l-6.4,0.3v1.5h47.4v-1.5c-0.9-0.1-1.9-0.1-3.1-0.2
		c-1.2-0.1-2.5-0.2-3.9-0.3c-1.4-0.2-2.5-0.6-3.1-1.5s-1.1-2.3-1.3-4.3l-0.2-4.5V7.6l3.9,0.2c2,0,4.3,1.7,7,5s5.2,7.2,7.6,11.6
		c2.4,4.4,4.5,8.6,6.3,12.6H86V5.8H9.4z"/>
	<path class="st0" d="M147.4,74.8c-1.9-0.2-3-0.7-3.4-1.4c-0.4-0.7-0.6-2.3-0.6-4.6l-0.1-4.5V42.5c0-3.8-1.7-6.9-5.2-9.4
		c-3.5-2.4-7.4-3.6-11.9-3.6c-4.1,0-7.2,0.7-9.4,2.1c-2.2,1.4-3.9,3.4-5.1,6c0.1-0.9,0.2-2.1,0.3-3.5c0.1-1.5,0.1-3.3,0.1-5.4v-23
		H85.3v1.5l0.7,0l3,0.2c1.8,0.2,3,0.6,3.5,1.3s0.8,1.9,0.8,3.6l0.1,4v47.9l-0.1,4.5c0,2.4-0.2,3.9-0.6,4.7c-0.4,0.7-1.5,1.2-3.4,1.4
		l-2.2,0.1v1.5h30.1v-1.5l-1.3-0.1c-1.8,0-2.9-0.4-3.2-1.1c-0.4-0.7-0.5-2.4-0.5-4.9l-0.1-4.5V39.5c0.6-1.5,1.3-2.9,2.3-4.4
		c0.9-1.4,2.5-2.1,4.7-2.1c1.8,0,3.1,0.6,4,1.8c0.9,1.2,1.4,3.1,1.4,5.8l0.1,4v19.8l-0.1,4.5c0,2.5-0.2,4.1-0.6,4.8
		c-0.4,0.8-1.4,1.2-3.2,1.2l-1.3,0.1v1.5h30v-1.5L147.4,74.8z"/>
	<path class="st0" d="M198.6,61.2c-1.2,3.4-3,6.2-5.3,8.4s-5.5,3.3-9.4,3.3c-2.8,0-5.1-0.7-6.9-2.1c-1.8-1.4-3.3-3.2-4.2-5.5
		c-1-2.3-1.7-4.6-2-7c-0.3-2.4-0.5-4.8-0.5-7.1H200c0-6.1-2-11.2-5.9-15.4c-4-4.2-9.7-6.3-17.1-6.3c-7.1,0-13.2,2.3-18.3,6.7
		c-5.1,4.5-7.6,10.2-7.6,17.2c0,7.5,2.5,13.4,7.4,17.6c4.9,4.2,11.2,6.4,18.8,6.4c5.4,0,10.2-1.4,14.2-4.1s6.9-6.5,8.8-11.4
		L198.6,61.2z M170.4,43.1c0.3-4.1,0.9-7.1,1.7-9.1c0.8-2,2.2-3,4.3-3c2.4,0,4,1,5,3.1c1,2,1.5,5,1.5,9c0,1.5,0,2.7,0,3.7
		c0,1,0.1,1.8,0.2,2.5h-12.8L170.4,43.1z"/>
	<path class="st0" d="M247.7,33.1c-2.2-2.2-4.8-3.3-7.9-3.3c-5.3,0-8.7,1.2-10.1,3.5c-1.5,2.3-2.4,4.1-2.8,5.2v-8.2h-25.2V32
		l2.5,0.2c2.1,0.2,3.2,0.7,3.5,1.5c0.3,0.8,0.5,1.9,0.6,3.5l0.1,4v23.2l-0.1,4.5c0,2.4-0.2,3.9-0.6,4.7c-0.4,0.7-1.5,1.2-3.4,1.4
		l-2.6,0.1v1.5h32.4v-1.5l-2.9-0.2c-1.8-0.2-2.9-0.6-3.3-1.3c-0.4-0.6-0.7-1.9-0.7-3.7l-0.1-4.8V42.5c0-1.8,0.6-3.6,1.8-5.6
		c1.2-2,2.7-3,4.4-3c0.3,0,0.6,0.2,1,0.7c-0.7,1.3-1.3,2.5-1.9,3.8c-0.6,1.4-0.9,2.8-0.9,4.5c0,2.2,0.9,4.2,2.7,5.9
		c1.8,1.7,3.9,2.6,6.4,2.6c3,0,5.5-1,7.5-3c2-2,3.1-4.5,3.1-7.4S249.8,35.3,247.7,33.1z"/>
	<path class="st0" d="M299.7,61.2c-1.2,3.4-3,6.2-5.3,8.4S288.9,73,285,73c-2.8,0-5.1-0.7-6.9-2.1c-1.8-1.4-3.3-3.2-4.2-5.5
		c-1-2.3-1.7-4.6-2-7c-0.4-2.4-0.5-4.8-0.5-7.1h29.8c0-6.1-2-11.2-5.9-15.4c-4-4.2-9.7-6.3-17.1-6.3c-7.1,0-13.2,2.3-18.3,6.7
		c-5.1,4.5-7.6,10.2-7.6,17.2c0,7.5,2.5,13.4,7.4,17.6c4.9,4.2,11.2,6.4,18.9,6.4c5.5,0,10.2-1.4,14.2-4.1c4-2.8,6.9-6.5,8.8-11.4
		L299.7,61.2z M271.5,43.1c0.3-4.1,0.9-7.1,1.7-9.1c0.8-2,2.2-3,4.3-3c2.4,0,4,1,5,3.1c1,2,1.4,5,1.4,9c0,1.5,0,2.7,0,3.7
		c0,1,0.1,1.8,0.1,2.5h-12.8L271.5,43.1z"/>
	<path class="st0" d="M612.8,74.8c-1.9-0.3-3.1-0.7-3.4-1.4c-0.4-0.6-0.5-2.2-0.5-4.7l-0.1-4.5V42.7c0-3.9-1.6-7-4.8-9.5
		c-3.2-2.5-7.1-3.7-11.5-3.7c-6.5,0-10.4,1.2-11.8,3.7c-1.4,2.5-2.3,4.3-2.6,5.4c-1.3-3-3.3-5.3-6-6.8s-5.8-2.3-9.5-2.3
		c-5.2,0-8.7,0.9-10.4,2.8c-1.7,1.8-2.9,3.7-3.5,5.5v-7.3h-24.7V32l2.2,0.2c2.1,0.2,3.2,0.7,3.5,1.5c0.3,0.8,0.5,1.9,0.6,3.5l0.1,4
		v23.2l-0.1,4.5c0,2.4-0.2,3.9-0.6,4.7c-0.4,0.7-1.5,1.2-3.4,1.4l-2.1,0.1v1.5h29.1v-1.5c-2.3-0.2-3.5-0.8-3.7-1.6
		c-0.2-0.9-0.3-2.4-0.3-4.5l-0.1-4.5V39.4c0.5-1.5,1.1-2.9,1.9-4.4c0.8-1.4,2.3-2.1,4.5-2.1c1.7,0,2.9,0.6,3.6,1.8
		c0.7,1.2,1,3.2,1,6l0.1,4v19.6l-0.1,4.5c0,2.7-0.2,4.3-0.7,5c-0.4,0.7-1.8,1.1-3.9,1.1v1.5h27.6v-1.5c-2.3-0.2-3.5-0.8-3.7-1.6
		c-0.2-0.9-0.3-2.4-0.3-4.5l-0.1-4.5V40.8c0.5-3.1,1.3-5.2,2.6-6.3c1.3-1.1,2.5-1.6,3.7-1.6c1.7,0,2.9,0.6,3.6,1.8
		c0.7,1.2,1,3.2,1,6l0.1,4v19.6l-0.1,4.5c0,2.7-0.2,4.3-0.6,5c-0.4,0.7-1.8,1.1-4,1.1v1.5h29.3v-1.5L612.8,74.8z"/>
	<path class="st0" d="M644.8,74.8c-1.9-0.2-3-0.7-3.4-1.4c-0.4-0.7-0.6-2.3-0.6-4.6l-0.1-4.5V30.5h-25.5V32l2.6,0.2
		c2.1,0.2,3.2,0.7,3.5,1.5c0.3,0.8,0.5,1.9,0.6,3.5l0.1,4v23.2l-0.1,4.5c0,2.4-0.2,3.9-0.6,4.7c-0.4,0.7-1.5,1.2-3.4,1.4l-2.3,0.1
		v1.5h31.5v-1.5L644.8,74.8z M638,7.7c-1.8-1.7-4.1-2.6-6.8-2.6c-2.6,0-4.8,0.9-6.7,2.7c-1.9,1.8-2.8,3.9-2.8,6.5
		c0,2.6,0.9,4.8,2.8,6.5c1.8,1.8,4.1,2.7,6.7,2.7c2.7,0,4.9-0.9,6.8-2.7c1.9-1.8,2.8-4,2.8-6.5C640.8,11.6,639.8,9.5,638,7.7z"/>
	<path class="st0" d="M709,74.8c-1.9-0.2-3-0.7-3.4-1.4c-0.4-0.7-0.6-2.3-0.6-4.6l-0.1-4.5V42.5c0-3.5-1.7-6.5-5-9.1
		c-3.4-2.6-7.3-3.9-11.9-3.9c-5.3,0-8.9,0.9-10.7,2.8c-1.8,1.8-3.1,3.7-3.8,5.5v-7.3h-24.7V32l2.2,0.2c2.1,0.2,3.2,0.7,3.5,1.5
		c0.3,0.8,0.5,1.9,0.6,3.5l0.1,4v23.2l-0.1,4.5c0,2.4-0.2,3.9-0.6,4.7c-0.4,0.7-1.5,1.2-3.4,1.4l-2.3,0.1v1.5h30.2v-1.5
		c-2.4,0-3.8-0.4-4.3-1.1c-0.5-0.7-0.7-2.4-0.7-5l-0.1-4.5V39.5c0.6-1.5,1.3-2.9,2.3-4.4c0.9-1.4,2.5-2.1,4.8-2.1
		c3.5,0,5.3,2.5,5.3,7.6l0.1,4v19.8l-0.1,4.5c0,2.6-0.3,4.3-0.8,5c-0.5,0.8-1.9,1.1-4.2,1.1v1.5h30v-1.5L709,74.8z"/>
</g>
<g>
	<path class="st1" d="M391.3,77.5H362v-1.6c2.2,0,3.6-0.4,4-1.1c0.4-0.7,0.6-2.4,0.6-5l0.1-4.5V45.7l-0.1-4c0-2.8-0.3-4.8-1-6
		c-0.7-1.2-1.9-1.8-3.6-1.8c-1.2,0-2.4,0.5-3.7,1.6s-2.2,3.2-2.6,6.3v23.6l0.1,4.5c0,2.1,0.1,3.6,0.3,4.5c0.2,0.9,1.5,1.5,3.7,1.6
		v1.6h-27.6v-1.6c2.2,0,3.5-0.4,3.9-1.1c0.4-0.7,0.7-2.4,0.7-5l0.1-4.5V45.7l-0.1-4c0-2.8-0.3-4.8-1-6c-0.7-1.2-1.9-1.8-3.6-1.8
		c-2.2,0-3.7,0.7-4.5,2.1c-0.8,1.4-1.4,2.9-1.9,4.4v24.9l0.1,4.5c0,2.1,0.1,3.6,0.3,4.5c0.2,0.9,1.5,1.5,3.7,1.6v1.6H301v-1.6
		l2.1-0.1c1.9-0.2,3-0.6,3.4-1.4c0.4-0.7,0.6-2.3,0.6-4.7l0.1-4.5V42.2l-0.1-4c-0.1-1.6-0.3-2.7-0.6-3.5c-0.3-0.8-1.4-1.3-3.5-1.5
		l-2.2-0.2v-1.6h24.7v7.3c0.6-1.8,1.7-3.6,3.4-5.5c1.7-1.8,5.2-2.8,10.4-2.8c3.6,0,6.8,0.8,9.5,2.3c2.7,1.5,4.7,3.8,6,6.8
		c0.3-1.2,1.2-3,2.6-5.4c1.4-2.5,5.3-3.7,11.8-3.7c4.4,0,8.2,1.2,11.4,3.7c3.2,2.5,4.9,5.6,4.9,9.5v21.6l0.1,4.5
		c0,2.5,0.2,4,0.5,4.7c0.4,0.6,1.5,1.1,3.4,1.4l1.7,0.1V77.5z"/>
	<path class="st1" d="M423.9,77.5h-31.5v-1.6l2.3-0.1c1.9-0.2,3-0.6,3.4-1.4c0.4-0.7,0.6-2.3,0.6-4.7l0.1-4.5V42.2l-0.1-4
		c-0.1-1.6-0.3-2.7-0.6-3.5c-0.3-0.8-1.4-1.3-3.5-1.5L392,33v-1.6h25.5v33.9l0.1,4.5c0,2.3,0.2,3.9,0.6,4.6c0.4,0.7,1.5,1.2,3.4,1.4
		l2.3,0.1V77.5z M398.5,15.3c0-2.5,0.9-4.7,2.8-6.5c1.9-1.8,4.1-2.7,6.7-2.7c2.7,0,4.9,0.9,6.8,2.6c1.9,1.7,2.8,3.9,2.8,6.5
		c0,2.6-0.9,4.8-2.8,6.5c-1.9,1.8-4.1,2.7-6.8,2.7c-2.6,0-4.8-0.9-6.7-2.7C399.4,20.1,398.5,17.9,398.5,15.3z"/>
	<path class="st1" d="M463,45.5l-0.1-4c0-5-1.8-7.6-5.3-7.6c-2.2,0-3.8,0.7-4.8,2.1c-0.9,1.4-1.7,2.9-2.3,4.4v24.8l0.1,4.5
		c0,2.7,0.2,4.3,0.7,5c0.5,0.7,1.9,1.1,4.3,1.1v1.6h-30.2v-1.6l2.3-0.1c1.9-0.2,3-0.6,3.4-1.4c0.4-0.7,0.6-2.3,0.6-4.7l0.1-4.5V42.2
		l-0.1-4c-0.1-1.6-0.3-2.7-0.6-3.5c-0.3-0.8-1.4-1.3-3.5-1.5l-2.2-0.2v-1.6h24.7v7.3c0.7-1.8,2-3.6,3.8-5.5
		c1.8-1.8,5.4-2.8,10.7-2.8c4.6,0,8.6,1.3,11.9,3.9c3.4,2.6,5,5.6,5,9.1v21.8l0.1,4.5c0,2.3,0.2,3.9,0.6,4.6
		c0.4,0.7,1.5,1.2,3.4,1.4l2.1,0.1v1.6h-30v-1.6c2.3,0,3.7-0.4,4.2-1.1c0.5-0.7,0.8-2.4,0.8-5l0.1-4.5V45.5z"/>
	<path class="st1" d="M520.2,77.5h-31.5v-1.6l2.3-0.1c1.9-0.2,3-0.6,3.4-1.4c0.4-0.7,0.6-2.3,0.6-4.7l0.1-4.5V42.2l-0.1-4
		c-0.1-1.6-0.3-2.7-0.6-3.5c-0.3-0.8-1.4-1.3-3.5-1.5l-2.6-0.2v-1.6h25.5v33.9l0.1,4.5c0,2.3,0.2,3.9,0.6,4.6
		c0.4,0.7,1.5,1.2,3.4,1.4l2.3,0.1V77.5z M494.8,15.3c0-2.5,0.9-4.7,2.8-6.5c1.9-1.8,4.1-2.7,6.7-2.7c2.7,0,4.9,0.9,6.8,2.6
		c1.9,1.7,2.8,3.9,2.8,6.5c0,2.6-0.9,4.8-2.8,6.5c-1.9,1.8-4.1,2.7-6.8,2.7c-2.6,0-4.8-0.9-6.7-2.7
		C495.7,20.1,494.8,17.9,494.8,15.3z"/>
</g>
</svg>
